<?xml version="1.0" encoding="UTF-8"?>
<svg xmlns="http://www.w3.org/2000/svg" xmlns:xlink="http://www.w3.org/1999/xlink" width="476.4pt" height="476.4pt" viewBox="0 0 476.4 476.4" version="1.1">
<defs>
<clipPath id="clip1">
  <path d="M 0 0 L 476.398438 0 L 476.398438 476.398438 L 0 476.398438 Z M 0 0 "/>
</clipPath>
</defs>
<g id="surface1">
<g clip-path="url(#clip1)" clip-rule="nonzero">
<path style=" stroke:none;fill-rule:evenodd;fill:rgb(0%,0%,0%);fill-opacity:1;" d="M 335.453125 288.429688 C 334.371094 280.5 331.804688 272.265625 327.535156 263.898438 C 309.242188 228.03125 316.03125 211.867188 334.4375 193.34375 C 329.75 190.628906 325.71875 187.847656 322.304688 184.921875 C 322.269531 184.890625 322.238281 184.863281 322.203125 184.832031 L 293.273438 213.761719 C 307.382813 227.871094 316.128906 247.339844 316.128906 268.789063 C 316.128906 311.6875 281.144531 346.675781 238.246094 346.675781 C 216.796875 346.675781 197.324219 337.929688 183.21875 323.820313 L 162.707031 344.328125 C 162.714844 344.335938 162.722656 344.34375 162.730469 344.351563 C 173.832031 353.957031 188.125 359.914063 203.140625 362.117188 C 216.089844 364.015625 230.199219 370.558594 238.246094 384.605469 C 246.292969 370.558594 260.402344 364.015625 273.351563 362.117188 C 295.585938 358.855469 316.722656 347.109375 327.679688 327.273438 C 333.980469 315.839844 337.660156 301.59375 335.453125 288.429688 Z M 264.46875 309.261719 C 264.496094 309.242188 264.523438 309.222656 264.550781 309.207031 C 265.324219 308.695313 266.03125 308.34375 266.613281 308.234375 C 267.28125 308.605469 267.925781 309.046875 268.535156 309.558594 C 269.144531 310.070313 269.6875 310.628906 270.164063 311.222656 C 270.203125 311.75 270.015625 312.425781 269.671875 313.203125 C 269.660156 313.222656 269.652344 313.242188 269.640625 313.265625 Z M 212.023438 309.261719 L 206.847656 313.265625 C 206.839844 313.242188 206.828125 313.222656 206.820313 313.203125 C 206.472656 312.425781 206.285156 311.75 206.328125 311.222656 C 206.804688 310.628906 207.347656 310.070313 207.957031 309.558594 C 208.566406 309.046875 209.210938 308.605469 209.875 308.234375 C 210.457031 308.34375 211.164063 308.695313 211.941406 309.207031 C 211.96875 309.222656 211.996094 309.242188 212.023438 309.261719 Z M 256.210938 317.179688 C 257.871094 315.210938 260.902344 311.957031 263.507813 309.953125 L 269.113281 314.292969 C 267.257813 317.605469 263.4375 322 261.675781 324.085938 C 259.136719 327.101563 256.386719 328.476563 253.761719 329.289063 C 252 329.832031 247.707031 331.078125 244.324219 329.75 C 239.113281 327.707031 239.402344 322.390625 242.519531 320.996094 C 248.527344 318.3125 252.304688 321.8125 256.210938 317.179688 Z M 281.375 295.722656 C 283.371094 290.585938 283.269531 287.027344 282.488281 281.496094 C 281.316406 273.144531 286.566406 262.652344 294.25 259.242188 C 293.304688 264.433594 293.332031 269.433594 294.066406 274.660156 C 294.152344 274.933594 294.246094 275.195313 294.34375 275.441406 C 295.339844 275.160156 296.4375 275.574219 296.976563 276.507813 C 297.484375 277.386719 297.34375 278.464844 296.710938 279.1875 C 297.164063 279.375 297.566406 279.710938 297.828125 280.167969 C 298.441406 281.226563 298.109375 282.582031 297.097656 283.25 C 297.441406 283.445313 297.738281 283.730469 297.949219 284.097656 C 298.585938 285.199219 298.203125 286.617188 297.101563 287.25 C 296.839844 287.402344 296.558594 287.496094 296.273438 287.535156 C 296.347656 287.628906 296.414063 287.726563 296.476563 287.835938 C 297.113281 288.9375 296.730469 290.355469 295.628906 290.988281 C 295.265625 291.199219 294.863281 291.300781 294.46875 291.296875 C 295.011719 292.378906 294.621094 293.71875 293.558594 294.332031 C 293.304688 294.480469 293.03125 294.570313 292.757813 294.613281 C 289.210938 300.113281 283.007813 301.710938 278.808594 304.75 C 276.296875 306.566406 275.09375 308.117188 272.597656 308.589844 C 272.160156 309.113281 271.746094 309.671875 271.320313 310.292969 C 270.472656 309.394531 268.480469 308.242188 267.234375 307.046875 L 268.101563 306.035156 C 266.449219 304.671875 265.734375 302.824219 266.289063 301.105469 C 267 298.90625 268.425781 296.425781 267.910156 294.042969 C 270.25 295.902344 269.566406 299.214844 269.644531 299.769531 C 269.886719 301.460938 270.472656 302.464844 271.257813 302.96875 C 273.433594 304.355469 277.121094 301.914063 279.105469 299.660156 C 279.84375 298.824219 280.871094 297.015625 281.375 295.722656 Z M 182.6875 287.824219 C 183.332031 288.191406 183.550781 289.019531 183.183594 289.664063 C 182.808594 290.304688 181.984375 290.527344 181.339844 290.15625 C 180.699219 289.785156 180.476563 288.957031 180.847656 288.316406 C 181.21875 287.671875 182.046875 287.453125 182.6875 287.824219 Z M 181.214844 284.085938 C 181.859375 284.457031 182.082031 285.28125 181.710938 285.925781 C 181.339844 286.566406 180.511719 286.789063 179.871094 286.417969 C 179.226563 286.046875 179.003906 285.21875 179.375 284.578125 C 179.746094 283.933594 180.574219 283.714844 181.214844 284.085938 Z M 181.335938 280.152344 C 181.976563 280.523438 182.199219 281.351563 181.828125 281.992188 C 181.457031 282.636719 180.632813 282.859375 179.988281 282.488281 C 179.347656 282.117188 179.125 281.289063 179.496094 280.648438 C 179.867188 280.003906 180.691406 279.78125 181.335938 280.152344 Z M 182.1875 276.496094 C 182.828125 276.867188 183.050781 277.695313 182.679688 278.335938 C 182.308594 278.980469 181.484375 279.203125 180.839844 278.832031 C 180.195313 278.460938 179.976563 277.632813 180.347656 276.992188 C 180.71875 276.347656 181.542969 276.125 182.1875 276.496094 Z M 184.757813 291.164063 C 185.402344 291.535156 185.625 292.363281 185.25 293.003906 C 184.882813 293.648438 184.054688 293.871094 183.410156 293.5 C 182.769531 293.128906 182.546875 292.300781 182.917969 291.660156 C 183.289063 291.015625 184.117188 290.792969 184.757813 291.164063 Z M 193.066406 297.515625 C 185.464844 289.484375 192.542969 270.371094 184.296875 262.015625 C 196.191406 273.4375 188.304688 291.867188 193.066406 297.515625 Z M 195.117188 295.722656 C 195.621094 297.015625 196.644531 298.824219 197.382813 299.660156 C 199.371094 301.914063 203.058594 304.355469 205.230469 302.96875 C 206.019531 302.464844 206.605469 301.460938 206.84375 299.769531 C 206.921875 299.214844 206.242188 295.902344 208.578125 294.042969 C 208.066406 296.425781 209.488281 298.90625 210.199219 301.105469 C 210.757813 302.824219 210.039063 304.671875 208.386719 306.035156 L 209.253906 307.046875 C 208.011719 308.242188 206.019531 309.394531 205.167969 310.292969 C 204.742188 309.671875 204.328125 309.113281 203.894531 308.589844 C 201.394531 308.117188 200.195313 306.566406 197.683594 304.75 C 193.484375 301.710938 187.28125 300.113281 183.734375 294.613281 C 183.457031 294.570313 183.183594 294.480469 182.929688 294.332031 C 181.867188 293.71875 181.476563 292.378906 182.019531 291.296875 C 181.625 291.300781 181.226563 291.199219 180.859375 290.988281 C 179.757813 290.355469 179.378906 288.9375 180.015625 287.835938 C 180.074219 287.726563 180.144531 287.628906 180.21875 287.535156 C 179.933594 287.496094 179.652344 287.402344 179.386719 287.25 C 178.285156 286.617188 177.90625 285.199219 178.542969 284.097656 C 178.753906 283.730469 179.050781 283.445313 179.394531 283.25 C 178.382813 282.582031 178.050781 281.226563 178.664063 280.167969 C 178.925781 279.710938 179.324219 279.375 179.78125 279.1875 C 179.144531 278.464844 179.007813 277.386719 179.511719 276.507813 C 180.050781 275.574219 181.152344 275.160156 182.144531 275.441406 C 182.242188 275.195313 182.335938 274.933594 182.425781 274.660156 C 183.160156 269.433594 183.1875 264.433594 182.242188 259.242188 C 189.925781 262.652344 195.175781 273.144531 194 281.496094 C 193.222656 287.027344 193.117188 290.585938 195.117188 295.722656 Z M 283.421875 297.515625 C 288.183594 291.867188 280.296875 273.4375 292.195313 262.015625 C 283.949219 270.371094 291.023438 289.484375 283.421875 297.515625 Z M 291.730469 291.164063 C 292.375 290.792969 293.203125 291.015625 293.574219 291.660156 C 293.941406 292.300781 293.722656 293.128906 293.078125 293.5 C 292.4375 293.871094 291.609375 293.648438 291.238281 293.003906 C 290.867188 292.363281 291.089844 291.535156 291.730469 291.164063 Z M 294.304688 276.496094 C 294.945313 276.125 295.773438 276.347656 296.144531 276.992188 C 296.515625 277.632813 296.292969 278.460938 295.648438 278.832031 C 295.007813 279.203125 294.183594 278.980469 293.808594 278.335938 C 293.441406 277.695313 293.660156 276.867188 294.304688 276.496094 Z M 295.15625 280.152344 C 295.796875 279.78125 296.625 280.003906 296.996094 280.648438 C 297.367188 281.289063 297.144531 282.117188 296.5 282.488281 C 295.859375 282.859375 295.03125 282.636719 294.660156 281.992188 C 294.289063 281.351563 294.511719 280.523438 295.15625 280.152344 Z M 295.273438 284.085938 C 295.917969 283.714844 296.746094 283.933594 297.117188 284.578125 C 297.488281 285.21875 297.265625 286.046875 296.621094 286.417969 C 295.980469 286.789063 295.152344 286.566406 294.78125 285.925781 C 294.410156 285.28125 294.632813 284.457031 295.273438 284.085938 Z M 293.804688 287.824219 C 294.445313 287.453125 295.273438 287.671875 295.644531 288.316406 C 296.015625 288.957031 295.792969 289.785156 295.148438 290.15625 C 294.507813 290.527344 293.679688 290.304688 293.308594 289.664063 C 292.9375 289.019531 293.160156 288.191406 293.804688 287.824219 Z M 220.28125 317.179688 C 224.1875 321.8125 227.964844 318.3125 233.96875 320.996094 C 237.089844 322.390625 237.375 327.707031 232.167969 329.75 C 228.78125 331.078125 224.488281 329.832031 222.726563 329.289063 C 220.105469 328.476563 217.355469 327.101563 214.8125 324.085938 C 213.054688 322 209.230469 317.605469 207.375 314.292969 L 212.984375 309.953125 C 215.585938 311.957031 218.621094 315.210938 220.28125 317.179688 Z M 218.625 313.40625 C 216.167969 310.832031 213.640625 307.929688 211.078125 307.183594 L 210.160156 306.109375 C 210.328125 305.917969 210.480469 305.71875 210.621094 305.515625 C 212.210938 303.21875 211.6875 301.261719 210.808594 299.003906 C 209.65625 296.039063 209.722656 294.703125 210.648438 291.828125 C 207.285156 293.226563 205.578125 293.933594 205.515625 298.0625 C 205.503906 299.050781 205.6875 300.421875 205.085938 301.328125 C 204.949219 301.539063 204.769531 301.722656 204.535156 301.871094 L 204.535156 301.875 C 203.671875 302.421875 202.175781 301.792969 201.410156 301.398438 C 199.605469 300.464844 198.128906 298.742188 197.175781 297.019531 C 196.839844 296.417969 196.535156 295.785156 196.324219 295.25 C 195.375 292.816406 194.929688 290.765625 194.808594 288.683594 C 194.496094 283.152344 196.179688 279.523438 194.828125 273.875 C 192.898438 265.804688 187.921875 260.34375 180.523438 257.058594 C 181.570313 262.808594 181.972656 268.261719 181.199219 274.066406 C 178.835938 274.242188 177.386719 276.648438 178.089844 278.792969 C 176.957031 279.945313 176.714844 281.761719 177.582031 283.191406 C 176.464844 284.816406 176.84375 287.082031 178.488281 288.21875 C 178.140625 289.835938 178.964844 291.578125 180.480469 292.253906 C 180.445313 293.863281 181.5 295.265625 182.9375 295.75 C 185.515625 299.484375 189.15625 301.421875 192.566406 303.238281 C 194.753906 304.402344 196.753906 305.609375 198.675781 307.164063 C 200.144531 308.351563 201.316406 309.300781 203.171875 309.757813 C 203.890625 310.667969 204.527344 311.640625 205.148438 312.625 C 206.140625 316.449219 211.175781 321.78125 213.820313 324.917969 C 216.207031 327.75 219.234375 329.625 222.75 330.722656 C 227.414063 332.175781 234.601563 332.417969 236.988281 327.085938 C 238.46875 323.773438 236.808594 320.632813 233.585938 319.441406 C 230.824219 318.417969 228.246094 318.714844 225.4375 318.476563 C 222.148438 318.199219 220.675781 315.554688 218.625 313.40625 Z M 257.867188 313.40625 C 260.320313 310.832031 262.851563 307.929688 265.414063 307.183594 L 266.328125 306.109375 C 266.164063 305.917969 266.007813 305.71875 265.871094 305.515625 C 264.28125 303.21875 264.804688 301.261719 265.683594 299.003906 C 266.835938 296.039063 266.765625 294.703125 265.84375 291.828125 C 269.207031 293.226563 270.914063 293.933594 270.972656 298.0625 C 270.988281 299.050781 270.800781 300.421875 271.402344 301.328125 C 271.542969 301.539063 271.722656 301.722656 271.957031 301.871094 L 271.957031 301.875 C 272.820313 302.421875 274.316406 301.792969 275.082031 301.398438 C 276.886719 300.464844 278.359375 298.742188 279.316406 297.019531 C 279.652344 296.417969 279.957031 295.785156 280.164063 295.25 L 280.167969 295.25 C 281.113281 292.816406 281.5625 290.765625 281.679688 288.683594 C 281.996094 283.152344 280.308594 279.523438 281.660156 273.875 C 283.589844 265.804688 288.570313 260.34375 295.964844 257.058594 C 294.917969 262.808594 294.519531 268.261719 295.292969 274.066406 C 297.65625 274.242188 299.105469 276.648438 298.398438 278.792969 C 299.535156 279.945313 299.777344 281.761719 298.910156 283.191406 C 300.027344 284.816406 299.648438 287.082031 298 288.21875 C 298.351563 289.835938 297.527344 291.578125 296.011719 292.253906 C 296.046875 293.863281 294.992188 295.265625 293.554688 295.75 C 290.972656 299.484375 287.335938 301.421875 283.921875 303.238281 C 281.738281 304.402344 279.734375 305.609375 277.816406 307.164063 C 276.347656 308.351563 275.175781 309.300781 273.320313 309.757813 C 272.601563 310.667969 271.964844 311.640625 271.34375 312.625 C 270.347656 316.449219 265.316406 321.78125 262.667969 324.917969 C 260.285156 327.75 257.253906 329.625 253.738281 330.722656 C 249.078125 332.175781 241.886719 332.417969 239.503906 327.085938 C 238.023438 323.773438 239.679688 320.632813 242.90625 319.441406 C 245.667969 318.417969 248.242188 318.714844 251.054688 318.476563 C 254.34375 318.199219 255.8125 315.554688 257.867188 313.40625 Z M 247.472656 278.773438 C 247.40625 278.816406 247.335938 278.859375 247.261719 278.90625 C 243.53125 281.25 237.839844 284.222656 237.304688 294.890625 C 233.960938 294.890625 224.8125 282.472656 224.152344 277.523438 C 223.921875 278.875 222.449219 281.140625 221.476563 281.359375 C 221.699219 276.316406 219.882813 272.75 217.988281 270.007813 C 217.988281 269.820313 218.007813 269.632813 218.035156 269.453125 C 216.171875 270.164063 214.589844 270.886719 213.117188 270.6875 C 208.898438 270.121094 202.007813 270.148438 198.539063 268.082031 C 198.511719 267.574219 198.785156 266.453125 198.492188 265.625 C 197.613281 263.136719 195.664063 259.910156 197.464844 256.917969 C 197.449219 258.8125 199.441406 260.949219 200.75 260.980469 C 212.035156 261.21875 217.847656 257.933594 219.871094 253.992188 C 220.714844 252.351563 221.25 250.425781 219.933594 249.160156 C 215.941406 245.335938 204.722656 242.609375 199.851563 243.421875 C 198.980469 241.652344 198 239.898438 198.84375 237.8125 C 203.113281 237.265625 207.277344 234.160156 207.277344 230.082031 C 207.277344 230.058594 207.277344 230.039063 207.277344 230.019531 C 209.425781 228.160156 213.617188 227.449219 216.675781 227.320313 C 222.867188 231.296875 225.589844 239.714844 225.589844 246.390625 C 225.589844 253.066406 223.746094 256.652344 220.679688 260.515625 C 224.597656 256.457031 227.019531 250.886719 227.019531 244.757813 C 227.019531 244.179688 227 243.605469 226.957031 243.039063 C 233.117188 246.902344 237.910156 252.023438 240.921875 257.449219 C 238.222656 251.433594 233.316406 245.621094 226.753906 241.246094 C 226.574219 240.082031 226.304688 238.949219 225.957031 237.851563 C 232.808594 239.414063 238.835938 242.511719 243.390625 246.457031 C 238.96875 241.917969 232.699219 238.253906 225.410156 236.324219 C 225.117188 235.589844 224.789063 234.875 224.421875 234.179688 C 230.867188 233.582031 237.046875 234.449219 242.28125 236.4375 C 237.035156 233.914063 230.574219 232.621094 223.734375 232.960938 C 222.460938 230.863281 220.859375 228.992188 219 227.425781 C 224.035156 227.394531 230.042969 227.425781 234.660156 228.992188 C 236.296875 223.765625 228.394531 220.886719 225.917969 226.605469 C 223.796875 226.789063 220.875 226.570313 218.632813 226.5625 C 217.105469 225.011719 214 223.875 210.304688 223.621094 C 210.3125 221.378906 212.171875 219.550781 214.457031 219.550781 C 214.855469 219.550781 215.242188 219.609375 215.609375 219.710938 C 214.996094 219.363281 214.285156 219.160156 213.527344 219.160156 C 211.242188 219.160156 209.375 220.996094 209.375 223.242188 C 209.375 223.351563 209.382813 223.464844 209.390625 223.574219 C 209.164063 223.566406 208.933594 223.5625 208.703125 223.5625 C 207.371094 223.5625 206.09375 223.675781 204.910156 223.886719 C 204.554688 223.488281 204.355469 223.035156 204.355469 222.515625 C 204.355469 218.101563 215.511719 218.003906 218.785156 214.460938 C 221.027344 212.03125 222.496094 210.066406 224.675781 210.066406 C 229.644531 210.066406 234.398438 215.234375 238.132813 218.550781 C 242.917969 220.335938 248.449219 221.828125 252.96875 219.71875 C 254.890625 218.820313 257.210938 216.820313 258.964844 216.710938 C 261.761719 216.539063 259.871094 223.257813 260.5625 225.972656 C 261.976563 221.9375 262.5625 217.960938 261.007813 214.980469 C 259.738281 212.542969 254.035156 217.117188 251.476563 218.382813 C 248.488281 219.863281 239.785156 219.175781 236.902344 215.101563 C 246.484375 218.941406 257.433594 210.574219 262.511719 210.386719 C 264.96875 214.597656 265.890625 223.933594 264.085938 228.03125 C 263.179688 232.195313 252.027344 234.324219 254.804688 243.164063 C 257.871094 252.910156 249.296875 260.039063 242.703125 263.28125 C 251.113281 262.589844 258.949219 249.777344 256.332031 242.746094 C 253.648438 235.542969 262.863281 234.464844 264.996094 228.585938 C 271.859375 228.292969 279.328125 227.871094 285.730469 227.324219 C 274.699219 234.707031 272.019531 246.253906 270.359375 258.191406 C 269.261719 266.074219 261.132813 273.453125 256.851563 280.519531 C 256.417969 277.1875 255.761719 274.570313 254.96875 272.457031 C 253.589844 275.675781 251.574219 279.628906 248.609375 284.527344 C 248.320313 282.3125 247.933594 280.414063 247.472656 278.773438 Z M 230.398438 224.21875 C 231.296875 224.960938 231.863281 226.042969 231.863281 227.242188 C 231.863281 227.394531 231.855469 227.542969 231.835938 227.6875 C 230.410156 227.347656 228.753906 227.085938 226.941406 226.929688 C 227.457031 225.523438 228.78125 224.460938 230.398438 224.21875 Z M 198.328125 237.761719 C 198.117188 238.363281 198.003906 239.015625 198.003906 239.695313 C 198.003906 241.074219 198.476563 242.339844 199.265625 243.332031 C 198.628906 243.59375 197.933594 243.742188 197.203125 243.742188 C 194.113281 243.742188 191.59375 241.148438 191.59375 237.972656 C 191.59375 236.023438 192.542969 234.292969 193.992188 233.246094 C 194.429688 235.496094 196.148438 237.285156 198.328125 237.761719 Z M 207.082031 224.535156 C 210.175781 224.535156 214.765625 225.46875 216.042969 226.839844 C 212.238281 226.871094 207.949219 227.898438 206.632813 229.277344 C 206.488281 227.710938 203.988281 226.382813 200.542969 225.878906 C 202.113281 225.058594 203.984375 224.535156 207.082031 224.535156 Z M 198.492188 236.941406 C 198.167969 236.941406 197.851563 236.921875 197.539063 236.886719 C 195.660156 235.636719 194.429688 233.605469 194.429688 231.3125 C 194.429688 230.074219 194.789063 228.910156 195.414063 227.90625 C 196.660156 227.042969 198.207031 226.53125 199.875 226.53125 C 202.347656 226.53125 204.542969 227.652344 205.898438 229.367188 C 206.347656 233.332031 203.433594 236.941406 198.492188 236.941406 Z M 149.890625 110.179688 L 153.835938 108.972656 L 157.628906 121.378906 C 158.125 123 158.359375 124.292969 158.34375 125.25 C 158.308594 126.507813 157.898438 127.636719 157.097656 128.636719 C 156.300781 129.636719 155.078125 130.386719 153.433594 130.890625 C 151.496094 131.480469 149.847656 131.398438 148.46875 130.628906 C 147.097656 129.867188 146.082031 128.441406 145.4375 126.347656 L 149.035156 124.78125 C 149.425781 125.886719 149.832031 126.632813 150.257813 127.011719 C 150.898438 127.582031 151.660156 127.734375 152.53125 127.46875 C 153.410156 127.199219 153.960938 126.757813 154.171875 126.136719 C 154.382813 125.523438 154.246094 124.421875 153.757813 122.835938 Z M 182.03125 122.644531 L 177.679688 123.808594 L 174.746094 119.773438 L 166.835938 121.894531 L 166.410156 126.828125 L 162.167969 127.964844 L 164.574219 106.105469 L 168.800781 104.972656 Z M 172.574219 116.785156 L 167.878906 110.171875 L 167.171875 118.234375 Z M 185.605469 122.234375 L 177.230469 102.902344 L 181.398438 102.164063 L 186.886719 115.492188 L 188.132813 100.980469 L 192.976563 100.125 L 199 113.597656 L 199.609375 98.953125 L 203.710938 98.230469 L 202.371094 119.277344 L 198.046875 120.039063 L 191.371094 105.660156 L 190.023438 121.453125 Z M 226.332031 117.011719 L 221.84375 117.40625 L 219.65625 112.921875 L 211.496094 113.636719 L 210.21875 118.421875 L 205.84375 118.804688 L 212.011719 97.695313 L 216.367188 97.3125 Z M 218.03125 109.601563 L 214.554688 102.269531 L 212.460938 110.089844 Z M 235.574219 96.636719 L 243.765625 96.777344 C 245.386719 96.804688 246.597656 96.894531 247.390625 97.046875 C 248.1875 97.195313 248.890625 97.488281 249.515625 97.929688 C 250.136719 98.367188 250.644531 98.945313 251.054688 99.667969 C 251.460938 100.386719 251.65625 101.191406 251.640625 102.074219 C 251.625 103.03125 251.351563 103.910156 250.824219 104.703125 C 250.289063 105.496094 249.578125 106.085938 248.6875 106.46875 C 249.925781 106.855469 250.878906 107.492188 251.53125 108.375 C 252.1875 109.265625 252.503906 110.300781 252.484375 111.484375 C 252.46875 112.414063 252.238281 113.316406 251.789063 114.191406 C 251.339844 115.0625 250.734375 115.757813 249.976563 116.269531 C 249.21875 116.78125 248.285156 117.089844 247.183594 117.195313 C 246.496094 117.253906 244.828125 117.273438 242.191406 117.246094 L 235.214844 117.125 Z M 239.65625 100.117188 L 239.574219 104.855469 L 242.28125 104.902344 C 243.894531 104.929688 244.898438 104.925781 245.289063 104.882813 C 245.996094 104.816406 246.558594 104.582031 246.972656 104.183594 C 247.382813 103.785156 247.59375 103.253906 247.605469 102.589844 C 247.617188 101.957031 247.453125 101.4375 247.113281 101.035156 C 246.765625 100.632813 246.25 100.386719 245.566406 100.292969 C 245.15625 100.238281 243.976563 100.195313 242.03125 100.160156 Z M 239.511719 108.265625 L 239.417969 113.742188 L 243.242188 113.808594 C 244.734375 113.835938 245.679688 113.8125 246.082031 113.734375 C 246.699219 113.636719 247.207031 113.367188 247.601563 112.945313 C 247.996094 112.519531 248.199219 111.941406 248.214844 111.214844 C 248.222656 110.597656 248.082031 110.078125 247.792969 109.640625 C 247.5 109.207031 247.074219 108.886719 246.515625 108.679688 C 245.957031 108.472656 244.730469 108.355469 242.851563 108.324219 Z M 274.28125 119.167969 L 269.792969 118.773438 L 268.417969 113.980469 L 260.257813 113.265625 L 258.167969 117.757813 L 253.796875 117.375 L 263.535156 97.65625 L 267.890625 98.035156 Z M 267.398438 110.425781 L 265.246094 102.605469 L 261.828125 109.9375 Z M 276.53125 119.742188 L 280.089844 99.558594 L 288.671875 101.074219 C 290.828125 101.453125 292.359375 101.914063 293.273438 102.445313 C 294.1875 102.980469 294.859375 103.761719 295.28125 104.792969 C 295.707031 105.828125 295.808594 106.933594 295.597656 108.128906 C 295.332031 109.640625 294.664063 110.816406 293.601563 111.648438 C 292.542969 112.472656 291.097656 112.863281 289.28125 112.804688 C 290.074219 113.476563 290.703125 114.167969 291.167969 114.886719 C 291.632813 115.601563 292.210938 116.828125 292.90625 118.570313 L 294.679688 122.941406 L 289.804688 122.082031 L 287.632813 117.167969 C 286.863281 115.414063 286.324219 114.300781 286.007813 113.824219 C 285.695313 113.347656 285.335938 113 284.933594 112.769531 C 284.527344 112.542969 283.859375 112.347656 282.917969 112.179688 L 282.09375 112.035156 L 280.609375 120.460938 Z M 282.664063 108.8125 L 285.675781 109.34375 C 287.628906 109.6875 288.867188 109.824219 289.382813 109.746094 C 289.898438 109.667969 290.328125 109.445313 290.675781 109.089844 C 291.019531 108.734375 291.25 108.257813 291.355469 107.652344 C 291.476563 106.96875 291.390625 106.394531 291.101563 105.910156 C 290.8125 105.429688 290.347656 105.074219 289.707031 104.847656 C 289.382813 104.746094 288.398438 104.546875 286.742188 104.253906 L 283.566406 103.695313 Z M 314.71875 128.136719 L 310.371094 126.96875 L 309.847656 122.007813 L 301.933594 119.886719 L 299.097656 123.949219 L 294.855469 122.8125 L 307.871094 105.085938 L 312.097656 106.21875 Z M 309.457031 118.332031 L 308.699219 110.257813 L 304.058594 116.886719 Z M 319.234375 129.636719 L 324.214844 113.355469 L 318.398438 111.578125 L 319.414063 108.261719 L 334.988281 113.023438 L 333.972656 116.339844 L 328.171875 114.566406 L 323.195313 130.847656 Z M 455.644531 -0.0546875 L 476.4375 -0.0546875 L 476.4375 20.738281 L 472.660156 20.738281 L 472.660156 3.726563 L 455.644531 3.726563 Z M 476.4375 455.535156 L 476.4375 476.332031 L 455.644531 476.332031 L 455.644531 472.550781 L 472.660156 472.550781 L 472.660156 455.535156 Z M 20.847656 476.332031 L 0.0507813 476.332031 L 0.0507813 455.535156 L 3.832031 455.535156 L 3.832031 472.550781 L 20.847656 472.550781 Z M 0.0507813 -0.0546875 L 20.847656 -0.0546875 L 20.847656 3.726563 L 3.832031 3.726563 L 3.832031 20.738281 L 0.0507813 20.738281 Z M 338.859375 144.410156 C 307.222656 131.152344 272.414063 124.347656 238.246094 124.347656 C 204.078125 124.347656 169.269531 131.15625 137.632813 144.414063 L 126.210938 108.292969 C 161.246094 92.929688 200.179688 86.019531 238.246094 86.019531 C 276.3125 86.019531 315.246094 92.925781 350.277344 108.292969 Z M 338.859375 144.410156 "/>
<path style=" stroke:none;fill-rule:evenodd;fill:rgb(59.959412%,0%,0%);fill-opacity:1;" d="M 238.378906 394.042969 C 246.425781 378.957031 254.578125 369.492188 274.011719 366.640625 C 297.671875 363.167969 320.289063 350.34375 332.289063 329.085938 C 339.183594 316.871094 342.15625 302.523438 339.898438 287.128906 C 336.664063 265.078125 318.148438 245.519531 321.730469 222.8125 C 323.738281 210.09375 333.222656 201.042969 341.851563 192.359375 C 320.113281 179.769531 312.015625 168.246094 311.503906 143.539063 C 287.667969 160.832031 265.453125 168.648438 238.246094 146.011719 C 211.0625 168.648438 188.820313 160.832031 165.03125 143.539063 C 164.476563 168.246094 156.421875 179.769531 134.640625 192.359375 C 143.242188 201.042969 152.761719 210.09375 154.777344 222.8125 C 158.34375 245.519531 139.863281 265.078125 136.5625 287.128906 C 134.363281 302.523438 137.292969 316.871094 144.164063 329.085938 C 156.15625 350.34375 178.839844 363.167969 202.464844 366.640625 C 221.957031 369.492188 230.015625 378.957031 238.15625 394.042969 L 238.15625 392.445313 Z M 264.46875 309.261719 C 264.496094 309.242188 264.523438 309.222656 264.550781 309.207031 C 265.324219 308.695313 266.03125 308.34375 266.613281 308.234375 C 267.28125 308.605469 267.925781 309.046875 268.535156 309.558594 C 269.144531 310.070313 269.6875 310.628906 270.164063 311.222656 C 270.203125 311.75 270.015625 312.425781 269.671875 313.203125 C 269.660156 313.222656 269.652344 313.242188 269.640625 313.265625 Z M 212.023438 309.261719 L 206.847656 313.265625 C 206.839844 313.242188 206.828125 313.222656 206.820313 313.203125 C 206.472656 312.425781 206.285156 311.75 206.328125 311.222656 C 206.804688 310.628906 207.347656 310.070313 207.957031 309.558594 C 208.566406 309.046875 209.210938 308.605469 209.875 308.234375 C 210.457031 308.34375 211.164063 308.695313 211.941406 309.207031 C 211.96875 309.222656 211.996094 309.242188 212.023438 309.261719 Z M 218.839844 251.253906 C 219.398438 253.132813 212.453125 261.550781 200.46875 259.292969 C 197.300781 256.347656 199.042969 251.449219 202.496094 248.179688 L 204.25 251.878906 C 204.539063 252.488281 204.824219 252.4375 204.882813 251.765625 C 205.054688 249.839844 205.285156 247.890625 205.394531 245.960938 C 205.53125 245.875 205.640625 245.753906 205.78125 245.675781 C 206.816406 244.789063 209.867188 245.527344 212.746094 246.78125 C 208.222656 247.972656 202.617188 252.019531 204.738281 257.335938 C 203.761719 251.761719 210.15625 248.460938 214.617188 247.6875 C 216.761719 248.835938 218.277344 249.375 218.839844 251.253906 Z M 455.644531 -0.0546875 L 476.4375 -0.0546875 L 476.4375 20.738281 L 472.660156 20.738281 L 472.660156 3.726563 L 455.644531 3.726563 Z M 476.4375 455.535156 L 476.4375 476.332031 L 455.644531 476.332031 L 455.644531 472.550781 L 472.660156 472.550781 L 472.660156 455.535156 Z M 20.847656 476.332031 L 0.0507813 476.332031 L 0.0507813 455.535156 L 3.832031 455.535156 L 3.832031 472.550781 L 20.847656 472.550781 Z M 0.0507813 -0.0546875 L 20.847656 -0.0546875 L 20.847656 3.726563 L 3.832031 3.726563 L 3.832031 20.738281 L 0.0507813 20.738281 Z M 340.039063 148.691406 C 308.089844 135.105469 272.835938 128.132813 238.246094 128.132813 C 203.652344 128.132813 168.402344 135.109375 136.453125 148.695313 L 122.945313 105.96875 C 158.8125 89.578125 198.992188 82.230469 238.246094 82.230469 C 277.5 82.230469 317.679688 89.574219 353.546875 105.964844 Z M 338.859375 144.410156 C 307.222656 131.152344 272.414063 124.347656 238.246094 124.347656 C 204.078125 124.347656 169.269531 131.15625 137.632813 144.414063 L 126.210938 108.292969 C 161.246094 92.929688 200.179688 86.019531 238.246094 86.019531 C 276.3125 86.019531 315.246094 92.925781 350.277344 108.292969 Z M 238.246094 190.90625 C 281.144531 190.90625 316.128906 225.894531 316.128906 268.789063 C 316.128906 311.6875 281.144531 346.675781 238.246094 346.675781 C 195.347656 346.675781 160.359375 311.6875 160.359375 268.789063 C 160.359375 225.894531 195.347656 190.90625 238.246094 190.90625 Z M 238.246094 195.746094 C 278.476563 195.746094 311.292969 228.558594 311.292969 268.789063 C 311.292969 309.023438 278.476563 341.835938 238.246094 341.835938 C 198.011719 341.835938 165.199219 309.023438 165.199219 268.789063 C 165.199219 228.558594 198.011719 195.746094 238.246094 195.746094 Z M 335.453125 288.429688 C 334.371094 280.5 331.804688 272.265625 327.535156 263.898438 C 309.242188 228.03125 316.03125 211.867188 334.4375 193.34375 C 315.710938 182.503906 307.488281 170.625 307.109375 152.371094 C 283.75 169.324219 258.9375 169.191406 238.246094 151.972656 C 217.554688 169.191406 192.742188 169.324219 169.382813 152.371094 C 169.003906 170.625 160.78125 182.503906 142.050781 193.34375 C 160.460938 211.867188 167.246094 228.03125 148.957031 263.898438 C 144.6875 272.265625 142.121094 280.5 141.039063 288.425781 C 138.824219 301.59375 142.496094 315.8125 148.808594 327.273438 C 159.753906 347.085938 180.636719 358.816406 203.140625 362.117188 C 216.089844 364.015625 230.199219 370.558594 238.246094 384.605469 C 246.292969 370.558594 260.402344 364.015625 273.351563 362.117188 C 295.585938 358.855469 316.722656 347.109375 327.679688 327.273438 C 333.980469 315.839844 337.660156 301.59375 335.453125 288.429688 Z M 335.453125 288.429688 "/>
<path style=" stroke:none;fill-rule:evenodd;fill:rgb(100%,0%,0%);fill-opacity:1;" d="M 238.246094 195.746094 C 278.476563 195.746094 311.292969 228.558594 311.292969 268.789063 C 311.292969 309.023438 278.476563 341.835938 238.246094 341.835938 C 198.011719 341.835938 165.199219 309.023438 165.199219 268.789063 C 165.199219 228.558594 198.011719 195.746094 238.246094 195.746094 Z M 455.644531 -0.0546875 L 476.4375 -0.0546875 L 476.4375 20.738281 L 472.660156 20.738281 L 472.660156 3.726563 L 455.644531 3.726563 Z M 476.4375 455.535156 L 476.4375 476.332031 L 455.644531 476.332031 L 455.644531 472.550781 L 472.660156 472.550781 L 472.660156 455.535156 Z M 20.847656 476.332031 L 0.0507813 476.332031 L 0.0507813 455.535156 L 3.832031 455.535156 L 3.832031 472.550781 L 20.847656 472.550781 Z M 0.0507813 -0.0546875 L 20.847656 -0.0546875 L 20.847656 3.726563 L 3.832031 3.726563 L 3.832031 20.738281 L 0.0507813 20.738281 Z M 218.625 313.40625 C 216.167969 310.832031 213.640625 307.929688 211.078125 307.183594 L 210.160156 306.109375 C 210.328125 305.917969 210.480469 305.71875 210.621094 305.515625 C 212.210938 303.21875 211.6875 301.261719 210.808594 299.003906 C 209.65625 296.039063 209.722656 294.703125 210.648438 291.828125 C 207.285156 293.226563 205.578125 293.933594 205.515625 298.0625 C 205.503906 299.050781 205.6875 300.421875 205.085938 301.328125 C 204.949219 301.539063 204.769531 301.722656 204.535156 301.871094 L 204.535156 301.875 C 203.671875 302.421875 202.175781 301.792969 201.410156 301.398438 C 199.605469 300.464844 198.128906 298.742188 197.175781 297.019531 C 196.839844 296.417969 196.535156 295.785156 196.324219 295.25 C 195.375 292.816406 194.929688 290.765625 194.808594 288.683594 C 194.496094 283.152344 196.179688 279.523438 194.828125 273.875 C 192.898438 265.804688 187.921875 260.34375 180.523438 257.058594 C 181.570313 262.808594 181.972656 268.261719 181.199219 274.066406 C 178.835938 274.242188 177.386719 276.648438 178.089844 278.792969 C 176.957031 279.945313 176.714844 281.761719 177.582031 283.191406 C 176.464844 284.816406 176.84375 287.082031 178.488281 288.21875 C 178.140625 289.835938 178.964844 291.578125 180.480469 292.253906 C 180.445313 293.863281 181.5 295.265625 182.9375 295.75 C 185.515625 299.484375 189.15625 301.421875 192.566406 303.238281 C 194.753906 304.402344 196.753906 305.609375 198.675781 307.164063 C 200.144531 308.351563 201.316406 309.300781 203.171875 309.757813 C 203.890625 310.667969 204.527344 311.640625 205.148438 312.625 C 206.140625 316.449219 211.175781 321.78125 213.820313 324.917969 C 216.207031 327.75 219.234375 329.625 222.75 330.722656 C 227.414063 332.175781 234.601563 332.417969 236.988281 327.085938 C 238.46875 323.773438 236.808594 320.632813 233.585938 319.441406 C 230.824219 318.417969 228.246094 318.714844 225.4375 318.476563 C 222.148438 318.199219 220.675781 315.554688 218.625 313.40625 Z M 257.867188 313.40625 C 260.320313 310.832031 262.851563 307.929688 265.414063 307.183594 L 266.328125 306.109375 C 266.164063 305.917969 266.007813 305.71875 265.871094 305.515625 C 264.28125 303.21875 264.804688 301.261719 265.683594 299.003906 C 266.835938 296.039063 266.765625 294.703125 265.84375 291.828125 C 269.207031 293.226563 270.914063 293.933594 270.972656 298.0625 C 270.988281 299.050781 270.800781 300.421875 271.402344 301.328125 C 271.542969 301.539063 271.722656 301.722656 271.957031 301.871094 L 271.957031 301.875 C 272.820313 302.421875 274.316406 301.792969 275.082031 301.398438 C 276.886719 300.464844 278.359375 298.742188 279.316406 297.019531 C 279.652344 296.417969 279.957031 295.785156 280.164063 295.25 L 280.167969 295.25 C 281.113281 292.816406 281.5625 290.765625 281.679688 288.683594 C 281.996094 283.152344 280.308594 279.523438 281.660156 273.875 C 283.589844 265.804688 288.570313 260.34375 295.964844 257.058594 C 294.917969 262.808594 294.519531 268.261719 295.292969 274.066406 C 297.65625 274.242188 299.105469 276.648438 298.398438 278.792969 C 299.535156 279.945313 299.777344 281.761719 298.910156 283.191406 C 300.027344 284.816406 299.648438 287.082031 298 288.21875 C 298.351563 289.835938 297.527344 291.578125 296.011719 292.253906 C 296.046875 293.863281 294.992188 295.265625 293.554688 295.75 C 290.972656 299.484375 287.335938 301.421875 283.921875 303.238281 C 281.738281 304.402344 279.734375 305.609375 277.816406 307.164063 C 276.347656 308.351563 275.175781 309.300781 273.320313 309.757813 C 272.601563 310.667969 271.964844 311.640625 271.34375 312.625 C 270.347656 316.449219 265.316406 321.78125 262.667969 324.917969 C 260.285156 327.75 257.253906 329.625 253.738281 330.722656 C 249.078125 332.175781 241.886719 332.417969 239.503906 327.085938 C 238.023438 323.773438 239.679688 320.632813 242.90625 319.441406 C 245.667969 318.417969 248.242188 318.714844 251.054688 318.476563 C 254.34375 318.199219 255.8125 315.554688 257.867188 313.40625 Z M 246.398438 281.359375 C 240.894531 285.023438 238.585938 288.371094 239.316406 296.78125 C 231.566406 294.894531 226.957031 287.691406 223.972656 281.5625 C 222.726563 282.835938 221.757813 283.164063 220.105469 283.539063 C 220.296875 279.128906 219.617188 274.664063 217.179688 270.832031 C 211.273438 273.003906 201.148438 270.910156 196.984375 268.429688 C 197.867188 264.984375 195.503906 262.335938 195.617188 258.796875 C 195.777344 253.730469 198.3125 249.964844 201.78125 246.671875 C 201.625 246.335938 201.5 245.871094 201.429688 245.410156 C 200.226563 245.535156 198.957031 245.53125 197.765625 245.425781 C 197.757813 245.761719 197.722656 246.082031 197.65625 246.339844 L 196.261719 251.902344 C 196.097656 252.554688 195.808594 252.5625 195.621094 251.914063 L 194.007813 246.414063 C 193.867188 245.929688 193.820313 245.214844 193.871094 244.613281 C 193.632813 244.519531 193.414063 244.417969 193.222656 244.3125 C 191.175781 244.875 189.695313 245.75 189.214844 246.765625 C 189.160156 245.667969 190.1875 244.449219 191.921875 243.394531 C 191.34375 242.878906 190.859375 242.261719 190.488281 241.535156 C 187.636719 242.210938 185.546875 243.394531 185.027344 244.695313 C 184.855469 243.164063 186.796875 241.253906 189.882813 239.824219 C 189.75 239.191406 189.683594 238.5 189.703125 237.75 C 189.707031 237.570313 189.722656 237.390625 189.738281 237.210938 C 185.90625 237.96875 182.992188 239.570313 182.457031 241.207031 C 182.125 239.3125 185.03125 236.632813 189.414063 234.933594 C 189.777344 234.792969 190.140625 234.667969 190.503906 234.546875 C 190.992188 233.558594 192.445313 232.671875 193.316406 231.96875 C 193.179688 230.203125 193.398438 228.546875 194.503906 227.160156 C 195.71875 225.636719 197.289063 225.613281 199.257813 225.488281 C 199.902344 225.175781 202.214844 223.914063 203.734375 223.9375 C 202.691406 221.8125 203.402344 220.367188 205.1875 219.1875 C 209.171875 216.558594 214.949219 217.101563 218.371094 213.316406 C 220.609375 210.847656 222.777344 208.789063 226.199219 209.28125 C 229.277344 209.722656 233.007813 211.476563 235.605469 213.652344 C 241.523438 214.65625 245.980469 215.058594 251.929688 213.023438 C 255.847656 211.683594 259.023438 208.816406 263.222656 208.664063 C 266.359375 213.953125 267.3125 220.664063 266.0625 226.625 C 273.949219 226.261719 280.355469 225.8125 288.246094 225.90625 C 282.988281 231.25 279.359375 232.847656 276.269531 240.109375 C 273.480469 246.660156 273.660156 253.511719 271.449219 259.992188 C 268.714844 267.996094 260.738281 277.34375 254.953125 283.667969 C 254.96875 281.078125 255.015625 279.574219 254.507813 277.027344 C 252.390625 281.183594 250.246094 285.527344 247.230469 289.035156 C 246.949219 286.625 246.84375 283.695313 246.398438 281.359375 Z M 246.398438 281.359375 "/>
<path style=" stroke:none;fill-rule:evenodd;fill:rgb(100%,80.076599%,0%);fill-opacity:1;" d="M 322.203125 184.832031 C 312.054688 176.085938 307.390625 166.007813 307.109375 152.371094 C 283.75 169.324219 258.9375 169.191406 238.246094 151.972656 C 217.554688 169.191406 192.742188 169.324219 169.382813 152.371094 C 169.003906 170.625 160.78125 182.503906 142.050781 193.34375 C 160.460938 211.867188 167.246094 228.03125 148.957031 263.898438 C 144.6875 272.265625 142.121094 280.5 141.039063 288.425781 C 138.824219 301.59375 142.496094 315.8125 148.808594 327.273438 C 152.445313 333.855469 157.179688 339.542969 162.707031 344.328125 L 183.21875 323.820313 C 169.109375 309.710938 160.359375 290.238281 160.359375 268.789063 C 160.359375 225.894531 195.347656 190.90625 238.246094 190.90625 C 259.695313 190.90625 279.164063 199.652344 293.273438 213.761719 Z M 256.210938 317.179688 C 257.871094 315.210938 260.902344 311.957031 263.507813 309.953125 L 269.113281 314.292969 C 267.257813 317.605469 263.4375 322 261.675781 324.085938 C 259.136719 327.101563 256.386719 328.476563 253.761719 329.289063 C 252 329.832031 247.707031 331.078125 244.324219 329.75 C 239.113281 327.707031 239.402344 322.390625 242.519531 320.996094 C 248.527344 318.3125 252.304688 321.8125 256.210938 317.179688 Z M 281.375 295.722656 C 283.371094 290.585938 283.269531 287.027344 282.488281 281.496094 C 281.316406 273.144531 286.566406 262.652344 294.25 259.242188 C 293.304688 264.433594 293.332031 269.433594 294.066406 274.660156 C 294.152344 274.933594 294.246094 275.195313 294.34375 275.441406 C 295.339844 275.160156 296.4375 275.574219 296.976563 276.507813 C 297.484375 277.386719 297.34375 278.464844 296.710938 279.1875 C 297.164063 279.375 297.566406 279.710938 297.828125 280.167969 C 298.441406 281.226563 298.109375 282.582031 297.097656 283.25 C 297.441406 283.445313 297.738281 283.730469 297.949219 284.097656 C 298.585938 285.199219 298.203125 286.617188 297.101563 287.25 C 296.839844 287.402344 296.558594 287.496094 296.273438 287.535156 C 296.347656 287.628906 296.414063 287.726563 296.476563 287.835938 C 297.113281 288.9375 296.730469 290.355469 295.628906 290.988281 C 295.265625 291.199219 294.863281 291.300781 294.46875 291.296875 C 295.011719 292.378906 294.621094 293.71875 293.558594 294.332031 C 293.304688 294.480469 293.03125 294.570313 292.757813 294.613281 C 289.210938 300.113281 283.007813 301.710938 278.808594 304.75 C 276.296875 306.566406 275.09375 308.117188 272.597656 308.589844 C 272.160156 309.113281 271.746094 309.671875 271.320313 310.292969 C 270.472656 309.394531 268.480469 308.242188 267.234375 307.046875 L 268.101563 306.035156 C 266.449219 304.671875 265.734375 302.824219 266.289063 301.105469 C 267 298.90625 268.425781 296.425781 267.910156 294.042969 C 270.25 295.902344 269.566406 299.214844 269.644531 299.769531 C 269.886719 301.460938 270.472656 302.464844 271.257813 302.96875 C 273.433594 304.355469 277.121094 301.914063 279.105469 299.660156 C 279.84375 298.824219 280.871094 297.015625 281.375 295.722656 Z M 182.6875 287.824219 C 183.332031 288.191406 183.550781 289.019531 183.183594 289.664063 C 182.808594 290.304688 181.984375 290.527344 181.339844 290.15625 C 180.699219 289.785156 180.476563 288.957031 180.847656 288.316406 C 181.21875 287.671875 182.046875 287.453125 182.6875 287.824219 Z M 181.214844 284.085938 C 181.859375 284.457031 182.082031 285.28125 181.710938 285.925781 C 181.339844 286.566406 180.511719 286.789063 179.871094 286.417969 C 179.226563 286.046875 179.003906 285.21875 179.375 284.578125 C 179.746094 283.933594 180.574219 283.714844 181.214844 284.085938 Z M 181.335938 280.152344 C 181.976563 280.523438 182.199219 281.351563 181.828125 281.992188 C 181.457031 282.636719 180.632813 282.859375 179.988281 282.488281 C 179.347656 282.117188 179.125 281.289063 179.496094 280.648438 C 179.867188 280.003906 180.691406 279.78125 181.335938 280.152344 Z M 182.1875 276.496094 C 182.828125 276.867188 183.050781 277.695313 182.679688 278.335938 C 182.308594 278.980469 181.484375 279.203125 180.839844 278.832031 C 180.195313 278.460938 179.976563 277.632813 180.347656 276.992188 C 180.71875 276.347656 181.542969 276.125 182.1875 276.496094 Z M 184.757813 291.164063 C 185.402344 291.535156 185.625 292.363281 185.25 293.003906 C 184.882813 293.648438 184.054688 293.871094 183.410156 293.5 C 182.769531 293.128906 182.546875 292.300781 182.917969 291.660156 C 183.289063 291.015625 184.117188 290.792969 184.757813 291.164063 Z M 193.066406 297.515625 C 185.464844 289.484375 192.542969 270.371094 184.296875 262.015625 C 196.191406 273.4375 188.304688 291.867188 193.066406 297.515625 Z M 195.117188 295.722656 C 195.621094 297.015625 196.644531 298.824219 197.382813 299.660156 C 199.371094 301.914063 203.058594 304.355469 205.230469 302.96875 C 206.019531 302.464844 206.605469 301.460938 206.84375 299.769531 C 206.921875 299.214844 206.242188 295.902344 208.578125 294.042969 C 208.066406 296.425781 209.488281 298.90625 210.199219 301.105469 C 210.757813 302.824219 210.039063 304.671875 208.386719 306.035156 L 209.253906 307.046875 C 208.011719 308.242188 206.019531 309.394531 205.167969 310.292969 C 204.742188 309.671875 204.328125 309.113281 203.894531 308.589844 C 201.394531 308.117188 200.195313 306.566406 197.683594 304.75 C 193.484375 301.710938 187.28125 300.113281 183.734375 294.613281 C 183.457031 294.570313 183.183594 294.480469 182.929688 294.332031 C 181.867188 293.71875 181.476563 292.378906 182.019531 291.296875 C 181.625 291.300781 181.226563 291.199219 180.859375 290.988281 C 179.757813 290.355469 179.378906 288.9375 180.015625 287.835938 C 180.074219 287.726563 180.144531 287.628906 180.21875 287.535156 C 179.933594 287.496094 179.652344 287.402344 179.386719 287.25 C 178.285156 286.617188 177.90625 285.199219 178.542969 284.097656 C 178.753906 283.730469 179.050781 283.445313 179.394531 283.25 C 178.382813 282.582031 178.050781 281.226563 178.664063 280.167969 C 178.925781 279.710938 179.324219 279.375 179.78125 279.1875 C 179.144531 278.464844 179.007813 277.386719 179.511719 276.507813 C 180.050781 275.574219 181.152344 275.160156 182.144531 275.441406 C 182.242188 275.195313 182.335938 274.933594 182.425781 274.660156 C 183.160156 269.433594 183.1875 264.433594 182.242188 259.242188 C 189.925781 262.652344 195.175781 273.144531 194 281.496094 C 193.222656 287.027344 193.117188 290.585938 195.117188 295.722656 Z M 283.421875 297.515625 C 288.183594 291.867188 280.296875 273.4375 292.195313 262.015625 C 283.949219 270.371094 291.023438 289.484375 283.421875 297.515625 Z M 291.730469 291.164063 C 292.375 290.792969 293.203125 291.015625 293.574219 291.660156 C 293.941406 292.300781 293.722656 293.128906 293.078125 293.5 C 292.4375 293.871094 291.609375 293.648438 291.238281 293.003906 C 290.867188 292.363281 291.089844 291.535156 291.730469 291.164063 Z M 294.304688 276.496094 C 294.945313 276.125 295.773438 276.347656 296.144531 276.992188 C 296.515625 277.632813 296.292969 278.460938 295.648438 278.832031 C 295.007813 279.203125 294.183594 278.980469 293.808594 278.335938 C 293.441406 277.695313 293.660156 276.867188 294.304688 276.496094 Z M 295.15625 280.152344 C 295.796875 279.78125 296.625 280.003906 296.996094 280.648438 C 297.367188 281.289063 297.144531 282.117188 296.5 282.488281 C 295.859375 282.859375 295.03125 282.636719 294.660156 281.992188 C 294.289063 281.351563 294.511719 280.523438 295.15625 280.152344 Z M 295.273438 284.085938 C 295.917969 283.714844 296.746094 283.933594 297.117188 284.578125 C 297.488281 285.21875 297.265625 286.046875 296.621094 286.417969 C 295.980469 286.789063 295.152344 286.566406 294.78125 285.925781 C 294.410156 285.28125 294.632813 284.457031 295.273438 284.085938 Z M 293.804688 287.824219 C 294.445313 287.453125 295.273438 287.671875 295.644531 288.316406 C 296.015625 288.957031 295.792969 289.785156 295.148438 290.15625 C 294.507813 290.527344 293.679688 290.304688 293.308594 289.664063 C 292.9375 289.019531 293.160156 288.191406 293.804688 287.824219 Z M 220.28125 317.179688 C 224.1875 321.8125 227.964844 318.3125 233.96875 320.996094 C 237.089844 322.390625 237.375 327.707031 232.167969 329.75 C 228.78125 331.078125 224.488281 329.832031 222.726563 329.289063 C 220.105469 328.476563 217.355469 327.101563 214.8125 324.085938 C 213.054688 322 209.230469 317.605469 207.375 314.292969 L 212.984375 309.953125 C 215.585938 311.957031 218.621094 315.210938 220.28125 317.179688 Z M 149.890625 110.179688 L 153.835938 108.972656 L 157.628906 121.378906 C 158.125 123 158.359375 124.292969 158.34375 125.25 C 158.308594 126.507813 157.898438 127.636719 157.097656 128.636719 C 156.300781 129.636719 155.078125 130.386719 153.433594 130.890625 C 151.496094 131.480469 149.847656 131.398438 148.46875 130.628906 C 147.097656 129.867188 146.082031 128.441406 145.4375 126.347656 L 149.035156 124.78125 C 149.425781 125.886719 149.832031 126.632813 150.257813 127.011719 C 150.898438 127.582031 151.660156 127.734375 152.53125 127.46875 C 153.410156 127.199219 153.960938 126.757813 154.171875 126.136719 C 154.382813 125.523438 154.246094 124.421875 153.757813 122.835938 Z M 182.03125 122.644531 L 177.679688 123.808594 L 174.746094 119.773438 L 166.835938 121.894531 L 166.410156 126.828125 L 162.167969 127.964844 L 164.574219 106.105469 L 168.800781 104.972656 Z M 172.574219 116.785156 L 167.878906 110.171875 L 167.171875 118.234375 Z M 185.605469 122.234375 L 177.230469 102.902344 L 181.398438 102.164063 L 186.886719 115.492188 L 188.132813 100.980469 L 192.976563 100.125 L 199 113.597656 L 199.609375 98.953125 L 203.710938 98.230469 L 202.371094 119.277344 L 198.046875 120.039063 L 191.371094 105.660156 L 190.023438 121.453125 Z M 226.332031 117.011719 L 221.84375 117.40625 L 219.65625 112.921875 L 211.496094 113.636719 L 210.21875 118.421875 L 205.84375 118.804688 L 212.011719 97.695313 L 216.367188 97.3125 Z M 218.03125 109.601563 L 214.554688 102.269531 L 212.460938 110.089844 Z M 235.574219 96.636719 L 243.765625 96.777344 C 245.386719 96.804688 246.597656 96.894531 247.390625 97.046875 C 248.1875 97.195313 248.890625 97.488281 249.515625 97.929688 C 250.136719 98.367188 250.644531 98.945313 251.054688 99.667969 C 251.460938 100.386719 251.65625 101.191406 251.640625 102.074219 C 251.625 103.03125 251.351563 103.910156 250.824219 104.703125 C 250.289063 105.496094 249.578125 106.085938 248.6875 106.46875 C 249.925781 106.855469 250.878906 107.492188 251.53125 108.375 C 252.1875 109.265625 252.503906 110.300781 252.484375 111.484375 C 252.46875 112.414063 252.238281 113.316406 251.789063 114.191406 C 251.339844 115.0625 250.734375 115.757813 249.976563 116.269531 C 249.21875 116.78125 248.285156 117.089844 247.183594 117.195313 C 246.496094 117.253906 244.828125 117.273438 242.191406 117.246094 L 235.214844 117.125 Z M 239.65625 100.117188 L 239.574219 104.855469 L 242.28125 104.902344 C 243.894531 104.929688 244.898438 104.925781 245.289063 104.882813 C 245.996094 104.816406 246.558594 104.582031 246.972656 104.183594 C 247.382813 103.785156 247.59375 103.253906 247.605469 102.589844 C 247.617188 101.957031 247.453125 101.4375 247.113281 101.035156 C 246.765625 100.632813 246.25 100.386719 245.566406 100.292969 C 245.15625 100.238281 243.976563 100.195313 242.03125 100.160156 Z M 239.511719 108.265625 L 239.417969 113.742188 L 243.242188 113.808594 C 244.734375 113.835938 245.679688 113.8125 246.082031 113.734375 C 246.699219 113.636719 247.207031 113.367188 247.601563 112.945313 C 247.996094 112.519531 248.199219 111.941406 248.214844 111.214844 C 248.222656 110.597656 248.082031 110.078125 247.792969 109.640625 C 247.5 109.207031 247.074219 108.886719 246.515625 108.679688 C 245.957031 108.472656 244.730469 108.355469 242.851563 108.324219 Z M 274.28125 119.167969 L 269.792969 118.773438 L 268.417969 113.980469 L 260.257813 113.265625 L 258.167969 117.757813 L 253.796875 117.375 L 263.535156 97.65625 L 267.890625 98.035156 Z M 267.398438 110.425781 L 265.246094 102.605469 L 261.828125 109.9375 Z M 276.53125 119.742188 L 280.089844 99.558594 L 288.671875 101.074219 C 290.828125 101.453125 292.359375 101.914063 293.273438 102.445313 C 294.1875 102.980469 294.859375 103.761719 295.28125 104.792969 C 295.707031 105.828125 295.808594 106.933594 295.597656 108.128906 C 295.332031 109.640625 294.664063 110.816406 293.601563 111.648438 C 292.542969 112.472656 291.097656 112.863281 289.28125 112.804688 C 290.074219 113.476563 290.703125 114.167969 291.167969 114.886719 C 291.632813 115.601563 292.210938 116.828125 292.90625 118.570313 L 294.679688 122.941406 L 289.804688 122.082031 L 287.632813 117.167969 C 286.863281 115.414063 286.324219 114.300781 286.007813 113.824219 C 285.695313 113.347656 285.335938 113 284.933594 112.769531 C 284.527344 112.542969 283.859375 112.347656 282.917969 112.179688 L 282.09375 112.035156 L 280.609375 120.460938 Z M 282.664063 108.8125 L 285.675781 109.34375 C 287.628906 109.6875 288.867188 109.824219 289.382813 109.746094 C 289.898438 109.667969 290.328125 109.445313 290.675781 109.089844 C 291.019531 108.734375 291.25 108.257813 291.355469 107.652344 C 291.476563 106.96875 291.390625 106.394531 291.101563 105.910156 C 290.8125 105.429688 290.347656 105.074219 289.707031 104.847656 C 289.382813 104.746094 288.398438 104.546875 286.742188 104.253906 L 283.566406 103.695313 Z M 314.71875 128.136719 L 310.371094 126.96875 L 309.847656 122.007813 L 301.933594 119.886719 L 299.097656 123.949219 L 294.855469 122.8125 L 307.871094 105.085938 L 312.097656 106.21875 Z M 309.457031 118.332031 L 308.699219 110.257813 L 304.058594 116.886719 Z M 319.234375 129.636719 L 324.214844 113.355469 L 318.398438 111.578125 L 319.414063 108.261719 L 334.988281 113.023438 L 333.972656 116.339844 L 328.171875 114.566406 L 323.195313 130.847656 Z M 455.644531 -0.0546875 L 476.4375 -0.0546875 L 476.4375 20.738281 L 472.660156 20.738281 L 472.660156 3.726563 L 455.644531 3.726563 Z M 476.4375 455.535156 L 476.4375 476.332031 L 455.644531 476.332031 L 455.644531 472.550781 L 472.660156 472.550781 L 472.660156 455.535156 Z M 20.847656 476.332031 L 0.0507813 476.332031 L 0.0507813 455.535156 L 3.832031 455.535156 L 3.832031 472.550781 L 20.847656 472.550781 Z M 0.0507813 -0.0546875 L 20.847656 -0.0546875 L 20.847656 3.726563 L 3.832031 3.726563 L 3.832031 20.738281 L 0.0507813 20.738281 Z M 0.0507813 -0.0546875 "/>
<path style=" stroke:none;fill-rule:evenodd;fill:rgb(100%,100%,100%);fill-opacity:1;" d="M 455.644531 -0.0546875 L 476.4375 -0.0546875 L 476.4375 20.738281 L 472.660156 20.738281 L 472.660156 3.726563 L 455.644531 3.726563 Z M 246.398438 281.359375 C 246.84375 283.695313 246.949219 286.625 247.230469 289.035156 C 250.246094 285.527344 252.390625 281.183594 254.507813 277.027344 C 255.015625 279.574219 254.96875 281.078125 254.953125 283.667969 C 260.738281 277.34375 268.714844 267.996094 271.449219 259.992188 C 273.660156 253.511719 273.480469 246.660156 276.269531 240.109375 C 279.359375 232.847656 282.988281 231.25 288.246094 225.90625 C 280.355469 225.8125 273.949219 226.261719 266.0625 226.625 C 267.3125 220.664063 266.359375 213.953125 263.222656 208.664063 C 259.023438 208.816406 255.847656 211.683594 251.929688 213.023438 C 245.980469 215.058594 241.523438 214.65625 235.605469 213.652344 C 233.007813 211.476563 229.277344 209.722656 226.199219 209.28125 C 222.777344 208.789063 220.609375 210.847656 218.371094 213.316406 C 214.949219 217.101563 209.171875 216.558594 205.1875 219.1875 C 203.402344 220.367188 202.691406 221.8125 203.734375 223.9375 C 202.214844 223.914063 199.902344 225.175781 199.257813 225.488281 C 197.289063 225.613281 195.71875 225.636719 194.503906 227.160156 C 193.398438 228.546875 193.179688 230.203125 193.316406 231.96875 C 192.445313 232.671875 190.992188 233.558594 190.503906 234.546875 C 190.140625 234.667969 189.777344 234.792969 189.414063 234.933594 C 185.03125 236.632813 182.125 239.3125 182.457031 241.207031 C 182.992188 239.570313 185.90625 237.96875 189.738281 237.210938 C 189.722656 237.390625 189.707031 237.570313 189.703125 237.75 C 189.683594 238.5 189.75 239.191406 189.882813 239.824219 C 186.796875 241.253906 184.855469 243.164063 185.027344 244.695313 C 185.546875 243.394531 187.636719 242.210938 190.488281 241.535156 C 190.859375 242.261719 191.34375 242.878906 191.921875 243.394531 C 190.1875 244.449219 189.160156 245.667969 189.214844 246.765625 C 189.695313 245.75 191.175781 244.875 193.222656 244.3125 C 193.414063 244.417969 193.632813 244.519531 193.871094 244.613281 C 193.820313 245.214844 193.867188 245.929688 194.007813 246.414063 L 195.621094 251.914063 C 195.808594 252.5625 196.097656 252.554688 196.261719 251.902344 L 197.65625 246.339844 C 197.722656 246.082031 197.757813 245.761719 197.765625 245.425781 C 198.957031 245.53125 200.226563 245.535156 201.429688 245.410156 C 201.5 245.871094 201.625 246.335938 201.78125 246.671875 C 198.3125 249.964844 195.777344 253.730469 195.617188 258.796875 C 195.503906 262.335938 197.867188 264.984375 196.984375 268.429688 C 201.148438 270.910156 211.273438 273.003906 217.179688 270.832031 C 219.617188 274.664063 220.296875 279.128906 220.105469 283.539063 C 221.757813 283.164063 222.726563 282.835938 223.972656 281.5625 C 226.957031 287.691406 231.566406 294.894531 239.316406 296.78125 C 238.585938 288.371094 240.894531 285.023438 246.398438 281.359375 Z M 218.839844 251.253906 C 219.398438 253.132813 212.453125 261.550781 200.46875 259.292969 C 197.300781 256.347656 199.042969 251.449219 202.496094 248.179688 L 204.25 251.878906 C 204.539063 252.488281 204.824219 252.4375 204.882813 251.765625 C 205.054688 249.839844 205.285156 247.890625 205.394531 245.960938 C 205.53125 245.875 205.640625 245.753906 205.78125 245.675781 C 206.816406 244.789063 209.867188 245.527344 212.746094 246.78125 C 208.222656 247.972656 202.617188 252.019531 204.738281 257.335938 C 203.761719 251.761719 210.15625 248.460938 214.617188 247.6875 C 216.761719 248.835938 218.277344 249.375 218.839844 251.253906 Z M 247.472656 278.773438 C 247.40625 278.816406 247.335938 278.859375 247.261719 278.90625 C 243.53125 281.25 237.839844 284.222656 237.304688 294.890625 C 233.960938 294.890625 224.8125 282.472656 224.152344 277.523438 C 223.921875 278.875 222.449219 281.140625 221.476563 281.359375 C 221.699219 276.316406 219.882813 272.75 217.988281 270.007813 C 217.988281 269.820313 218.007813 269.632813 218.035156 269.453125 C 216.171875 270.164063 214.589844 270.886719 213.117188 270.6875 C 208.898438 270.121094 202.007813 270.148438 198.539063 268.082031 C 198.511719 267.574219 198.785156 266.453125 198.492188 265.625 C 197.613281 263.136719 195.664063 259.910156 197.464844 256.917969 C 197.449219 258.8125 199.441406 260.949219 200.75 260.980469 C 212.035156 261.21875 217.847656 257.933594 219.871094 253.992188 C 220.714844 252.351563 221.25 250.425781 219.933594 249.160156 C 215.941406 245.335938 204.722656 242.609375 199.851563 243.421875 C 198.980469 241.652344 198 239.898438 198.84375 237.8125 C 203.113281 237.265625 207.277344 234.160156 207.277344 230.082031 C 207.277344 230.058594 207.277344 230.039063 207.277344 230.019531 C 209.425781 228.160156 213.617188 227.449219 216.675781 227.320313 C 222.867188 231.296875 225.589844 239.714844 225.589844 246.390625 C 225.589844 253.066406 223.746094 256.652344 220.679688 260.515625 C 224.597656 256.457031 227.019531 250.886719 227.019531 244.757813 C 227.019531 244.179688 227 243.605469 226.957031 243.039063 C 233.117188 246.902344 237.910156 252.023438 240.921875 257.449219 C 238.222656 251.433594 233.316406 245.621094 226.753906 241.246094 C 226.574219 240.082031 226.304688 238.949219 225.957031 237.851563 C 232.808594 239.414063 238.835938 242.511719 243.390625 246.457031 C 238.96875 241.917969 232.699219 238.253906 225.410156 236.324219 C 225.117188 235.589844 224.789063 234.875 224.421875 234.179688 C 230.867188 233.582031 237.046875 234.449219 242.28125 236.4375 C 237.035156 233.914063 230.574219 232.621094 223.734375 232.960938 C 222.460938 230.863281 220.859375 228.992188 219 227.425781 C 224.035156 227.394531 230.042969 227.425781 234.660156 228.992188 C 236.296875 223.765625 228.394531 220.886719 225.917969 226.605469 C 223.796875 226.789063 220.875 226.570313 218.632813 226.5625 C 217.105469 225.011719 214 223.875 210.304688 223.621094 C 210.3125 221.378906 212.171875 219.550781 214.457031 219.550781 C 214.855469 219.550781 215.242188 219.609375 215.609375 219.710938 C 214.996094 219.363281 214.285156 219.160156 213.527344 219.160156 C 211.242188 219.160156 209.375 220.996094 209.375 223.242188 C 209.375 223.351563 209.382813 223.464844 209.390625 223.574219 C 209.164063 223.566406 208.933594 223.5625 208.703125 223.5625 C 207.371094 223.5625 206.09375 223.675781 204.910156 223.886719 C 204.554688 223.488281 204.355469 223.035156 204.355469 222.515625 C 204.355469 218.101563 215.511719 218.003906 218.785156 214.460938 C 221.027344 212.03125 222.496094 210.066406 224.675781 210.066406 C 229.644531 210.066406 234.398438 215.234375 238.132813 218.550781 C 242.917969 220.335938 248.449219 221.828125 252.96875 219.71875 C 254.890625 218.820313 257.210938 216.820313 258.964844 216.710938 C 261.761719 216.539063 259.871094 223.257813 260.5625 225.972656 C 261.976563 221.9375 262.5625 217.960938 261.007813 214.980469 C 259.738281 212.542969 254.035156 217.117188 251.476563 218.382813 C 248.488281 219.863281 239.785156 219.175781 236.902344 215.101563 C 246.484375 218.941406 257.433594 210.574219 262.511719 210.386719 C 264.96875 214.597656 265.890625 223.933594 264.085938 228.03125 C 263.179688 232.195313 252.027344 234.324219 254.804688 243.164063 C 257.871094 252.910156 249.296875 260.039063 242.703125 263.28125 C 251.113281 262.589844 258.949219 249.777344 256.332031 242.746094 C 253.648438 235.542969 262.863281 234.464844 264.996094 228.585938 C 271.859375 228.292969 279.328125 227.871094 285.730469 227.324219 C 274.699219 234.707031 272.019531 246.253906 270.359375 258.191406 C 269.261719 266.074219 261.132813 273.453125 256.851563 280.519531 C 256.417969 277.1875 255.761719 274.570313 254.96875 272.457031 C 253.589844 275.675781 251.574219 279.628906 248.609375 284.527344 C 248.320313 282.3125 247.933594 280.414063 247.472656 278.773438 Z M 230.398438 224.21875 C 231.296875 224.960938 231.863281 226.042969 231.863281 227.242188 C 231.863281 227.394531 231.855469 227.542969 231.835938 227.6875 C 230.410156 227.347656 228.753906 227.085938 226.941406 226.929688 C 227.457031 225.523438 228.78125 224.460938 230.398438 224.21875 Z M 198.328125 237.761719 C 198.117188 238.363281 198.003906 239.015625 198.003906 239.695313 C 198.003906 241.074219 198.476563 242.339844 199.265625 243.332031 C 198.628906 243.59375 197.933594 243.742188 197.203125 243.742188 C 194.113281 243.742188 191.59375 241.148438 191.59375 237.972656 C 191.59375 236.023438 192.542969 234.292969 193.992188 233.246094 C 194.429688 235.496094 196.148438 237.285156 198.328125 237.761719 Z M 207.082031 224.535156 C 210.175781 224.535156 214.765625 225.46875 216.042969 226.839844 C 212.238281 226.871094 207.949219 227.898438 206.632813 229.277344 C 206.488281 227.710938 203.988281 226.382813 200.542969 225.878906 C 202.113281 225.058594 203.984375 224.535156 207.082031 224.535156 Z M 198.492188 236.941406 C 198.167969 236.941406 197.851563 236.921875 197.539063 236.886719 C 195.660156 235.636719 194.429688 233.605469 194.429688 231.3125 C 194.429688 230.074219 194.789063 228.910156 195.414063 227.90625 C 196.660156 227.042969 198.207031 226.53125 199.875 226.53125 C 202.347656 226.53125 204.542969 227.652344 205.898438 229.367188 C 206.347656 233.332031 203.433594 236.941406 198.492188 236.941406 Z M 476.4375 455.535156 L 476.4375 476.332031 L 455.644531 476.332031 L 455.644531 472.550781 L 472.660156 472.550781 L 472.660156 455.535156 Z M 20.847656 476.332031 L 0.0507813 476.332031 L 0.0507813 455.535156 L 3.832031 455.535156 L 3.832031 472.550781 L 20.847656 472.550781 Z M 0.0507813 -0.0546875 L 20.847656 -0.0546875 L 20.847656 3.726563 L 3.832031 3.726563 L 3.832031 20.738281 L 0.0507813 20.738281 Z M 0.0507813 -0.0546875 "/>
</g>
</g>
</svg>
